<?xml version="1.0" encoding="UTF-8"?>
<svg version="1.1" xmlns="http://www.w3.org/2000/svg" width="1024" height="1024">
<path d="M0 0 C17.82 0 35.64 0 54 0 C54 8.58 54 17.16 54 26 C62.58 26 71.16 26 80 26 C80.92857784 28.78573353 81.1237216 30.43479114 81.12025452 33.30900574 C81.12232076 34.62506318 81.12232076 34.62506318 81.12442875 35.96770763 C81.12083064 36.931223 81.11723253 37.89473837 81.11352539 38.88745117 C81.11364593 39.91868009 81.11376646 40.949909 81.11389065 42.01238728 C81.11314328 45.35593625 81.10552297 48.69942973 81.09765625 52.04296875 C81.09618629 54.10502089 81.09516591 56.16707339 81.09460449 58.22912598 C81.0893579 65.881923 81.07539674 73.53471204 81.0625 81.1875 C81.041875 98.285625 81.02125 115.38375 81 133 C145.35 133 209.7 133 276 133 C276 124.42 276 115.84 276 107 C278.60951236 105.69524382 280.52701285 105.88698428 283.4453125 105.90234375 C285.05986328 105.90717773 285.05986328 105.90717773 286.70703125 105.91210938 C287.83496094 105.92048828 288.96289062 105.92886719 290.125 105.9375 C291.26066406 105.94201172 292.39632813 105.94652344 293.56640625 105.95117188 C296.37765638 105.96298385 299.1888023 105.97945493 302 106 C301.99214478 105.03175293 301.99214478 105.03175293 301.98413086 104.04394531 C301.96331343 101.11264015 301.95032466 98.18135057 301.9375 95.25 C301.92912109 94.23421875 301.92074219 93.2184375 301.91210938 92.171875 C301.90727539 90.70234375 301.90727539 90.70234375 301.90234375 89.203125 C301.89448853 87.85202637 301.89448853 87.85202637 301.88647461 86.47363281 C302 84 302 84 303 80 C310.59 80 318.18 80 326 80 C326 71.75 326 63.5 326 55 C335.24 55 344.48 55 354 55 C353.96066872 48.07503237 353.96066872 48.07503237 353.90991211 41.15014648 C353.90616577 39.83639038 353.90616577 39.83639038 353.90234375 38.49609375 C353.89448853 37.16856079 353.89448853 37.16856079 353.88647461 35.81420898 C354.01918202 32.52449209 354.53438538 29.25930231 355 26 C363.58 26 372.16 26 381 26 C381 17.75 381 9.5 381 1 C398.49 1 415.98 1 434 1 C434.95368062 57.19834506 435.1295447 113.38199499 435.07202661 169.58765519 C435.06054858 181.01586155 435.05527699 192.44406877 435.05032361 203.87227952 C435.04006295 227.24819299 435.02243237 250.6240953 435 274 C443.25 274 451.5 274 460 274 C460 283.57 460 293.14 460 303 C467.06009767 302.96053809 467.06009767 302.96053809 474.12011719 302.90991211 C475.00344727 302.90741455 475.88677734 302.90491699 476.796875 302.90234375 C477.69760742 302.89710693 478.59833984 302.89187012 479.52636719 302.88647461 C482 303 482 303 486 304 C486 332.05 486 360.1 486 389 C477.42 389 468.84 389 460 389 C460 414.41 460 439.82 460 466 C464.62 466 469.24 466 474 466 C478.35212707 466.22608452 482.65752081 466.61400185 487 467 C487.33 475.25 487.66 483.5 488 492 C513.245 491.505 513.245 491.505 539 491 C539.33 500.57 539.66 510.14 540 520 C544.77043247 519.67507191 544.77043247 519.67507191 549.5402832 519.34179688 C553.62742748 519.07507142 557.68957858 518.97558723 561.78588867 518.98632812 C562.76555099 518.988302 563.74521332 518.99027588 564.75456238 518.99230957 C565.49555679 518.99484741 566.23655121 518.99738525 567 519 C567.18111607 530.89564256 567.3459006 542.79147761 567.5 554.6875 C567.51187725 555.60376034 567.5237545 556.52002068 567.53599167 557.46404648 C567.99034368 592.9137314 568.08733743 628.36016725 568.0625 663.8125 C568.06121597 665.65846079 568.06121597 665.65846079 568.05990601 667.54171371 C568.04857716 682.69449285 568.02777657 697.84724258 568 713 C559.09 713 550.18 713 541 713 C541 721.91 541 730.82 541 740 C532.09 740 523.18 740 514 740 C514 748.91 514 757.82 514 767 C487.6 767 461.2 767 434 767 C434 770.96 434 774.92 434 779 C433.86304641 781.92493748 433.71007517 784.83165838 433.5 787.75 C433.45230469 788.45898438 433.40460937 789.16796875 433.35546875 789.8984375 C433.24055213 791.59920352 433.12083745 793.29964439 433 795 C428.04199659 795.14556175 423.08391141 795.28779286 418.12573242 795.42724609 C416.44732228 795.47488551 414.76893548 795.52335627 413.09057617 795.57275391 C401.72140835 795.90664017 390.37441588 796.04884344 379 796 C379 804.91 379 813.82 379 823 C361.84 823 344.68 823 327 823 C327 831.91 327 840.82 327 850 C308.85 849.67 290.7 849.34 272 849 C272 857.58 272 866.16 272 875 C200.06 875.33 128.12 875.66 54 876 C54 867.09 54 858.18 54 849 C27.6 849 1.2 849 -26 849 C-26 839.76 -26 830.52 -26 821 C-34.91 821 -43.82 821 -53 821 C-53 812.09 -53 803.18 -53 794 C-61.58 794 -70.16 794 -79 794 C-79.495 780.14 -79.495 780.14 -80 766 C-88.58 766 -97.16 766 -106 766 C-106 739.27 -106 712.54 -106 685 C-97.42 685 -88.84 685 -80 685 C-80.03029297 680.88168701 -80.06058594 676.76337402 -80.09179688 672.52026367 C-80.19274971 658.77015856 -80.29229432 645.02004354 -80.39115143 631.26992321 C-80.45100308 622.94971907 -80.51130458 614.62951868 -80.57275391 606.30932617 C-80.62645441 599.03814987 -80.67922061 591.76696743 -80.73096704 584.49577695 C-80.7582713 580.66330392 -80.78597347 576.83083491 -80.81480408 572.99837303 C-80.97739599 551.33187088 -81.02585787 529.66709649 -81 508 C-89.25 508 -97.5 508 -106 508 C-106 384.25 -106 260.5 -106 133 C-97.42 133 -88.84 133 -80 133 C-80 115.51 -80 98.02 -80 80 C-71.09 80 -62.18 80 -53 80 C-53 71.42 -53 62.84 -53 54 C-44.75 54 -36.5 54 -28 54 C-28.03946927 46.61080256 -28.03946927 46.61080256 -28.09008789 39.22167969 C-28.09258545 38.29774414 -28.09508301 37.37380859 -28.09765625 36.421875 C-28.10289307 35.47924805 -28.10812988 34.53662109 -28.11352539 33.56542969 C-28 31 -28 31 -27 27 C-18.09 27 -9.18 27 0 27 C0 18.09 0 9.18 0 0 Z " fill="#0F181C" transform="translate(317,73)"/>
<path d="M0 0 C0 8.58 0 17.16 0 26 C8.25 26 16.5 26 25 26 C25 35.9 25 45.8 25 56 C7.84 56 -9.32 56 -27 56 C-27 73.82 -27 91.64 -27 110 C-17.76 110 -8.52 110 1 110 C1 119.57 1 129.14 1 139 C9.91 139 18.82 139 28 139 C28 147.91 28 156.82 28 166 C35.92 166 43.84 166 52 166 C52 193.06 52 220.12 52 248 C42.6768323 248.54842163 33.33928382 249 24 249 C24 257.25 24 265.5 24 274 C15.75 274 7.5 274 -1 274 C-1 283.24 -1 292.48 -1 302 C-17.45826724 302.17356562 -33.91659111 302.3404109 -50.375 302.5 C-52.21164026 302.51781588 -52.21164026 302.51781588 -54.08538437 302.53599167 C-88.66147246 302.86925234 -123.23471958 303.09611145 -157.8125 303.0625 C-159.14335255 303.06121597 -159.14335255 303.06121597 -160.501091 303.05990601 C-171.00075504 303.04898214 -181.5003692 303.02873946 -192 303 C-192 294.09 -192 285.18 -192 276 C-210.48 276 -228.96 276 -248 276 C-248 267.09 -248 258.18 -248 249 C-256.58 249 -265.16 249 -274 249 C-274 239.43 -274 229.86 -274 220 C-282.91 220 -291.82 220 -301 220 C-301 211.42 -301 202.84 -301 194 C-309.58 194 -318.16 194 -327 194 C-327 157.7 -327 121.4 -327 84 C-317.76 84 -308.52 84 -299 84 C-299 75.42 -299 66.84 -299 58 C-245.21 58 -191.42 58 -136 58 C-136 48.1 -136 38.2 -136 28 C-127.42 28 -118.84 28 -110 28 C-110.03905353 22.85565488 -110.03905353 22.85565488 -110.09008789 17.71142578 C-110.10524238 13.67446533 -109.91538072 9.72303978 -109.49389648 5.70654297 C-109.40196518 4.82078583 -109.31003387 3.93502869 -109.21531677 3.02243042 C-109.14426224 2.35502838 -109.0732077 1.68762634 -109 1 C-95.52644017 0.86933304 -82.05287787 0.73892506 -68.57931232 0.60884857 C-62.32313731 0.54844205 -56.06696319 0.48794601 -49.81079102 0.42724609 C-43.77430101 0.3686809 -37.73780878 0.31034994 -31.70131493 0.25218201 C-29.39721788 0.22993833 -27.09312165 0.20760998 -24.78902626 0.18519592 C-21.56418694 0.15383935 -18.33934486 0.12278268 -15.11450195 0.09179688 C-14.16000153 0.08244614 -13.2055011 0.0730954 -12.22207642 0.0634613 C-10.8991584 0.05084007 -10.8991584 0.05084007 -9.54951477 0.03796387 C-8.78719197 0.03058952 -8.02486917 0.02321518 -7.23944569 0.01561737 C-4.82635019 -0.00121099 -2.41315418 0 0 0 Z " fill="#FECA16" transform="translate(725,537)"/>
<path d="M0 0 C8.58 0 17.16 0 26 0 C26 63.03 26 126.06 26 191 C17.75 191 9.5 191 1 191 C1 208.49 1 225.98 1 244 C-8.24 244 -17.48 244 -27 244 C-26.9611265 248.72516294 -26.9611265 248.72516294 -26.90991211 253.45019531 C-26.88485982 259.66639503 -27.42195152 265.81416444 -28 272 C-32.81567018 272.02518048 -37.63130002 272.04308077 -42.44702148 272.05493164 C-44.07691111 272.05988474 -45.70679648 272.06664905 -47.33666992 272.07543945 C-58.60814853 272.13459819 -69.75210776 271.763486 -81 271 C-81 262.09 -81 253.18 -81 244 C-88.92 244 -96.84 244 -105 244 C-105 217.6 -105 191.2 -105 164 C-97.14854796 162.42970959 -89.00694143 163 -81 163 C-81 144.52 -81 126.04 -81 107 C-72.42 107 -63.84 107 -55 107 C-54.67 89.18 -54.34 71.36 -54 53 C-45.42 53 -36.84 53 -28 53 C-28 44.09 -28 35.18 -28 26 C-19.09 26 -10.18 26 -1 26 C-1.03920482 20.43647131 -1.03920482 20.43647131 -1.09008789 14.87304688 C-1.09258545 14.16212891 -1.09508301 13.45121094 -1.09765625 12.71875 C-1.10289307 12.00654297 -1.10812988 11.29433594 -1.11352539 10.56054688 C-0.95674205 7.02432384 -0.43904537 3.51236295 0 0 Z " fill="#FEC714" transform="translate(344,100)"/>
<path d="M0 0 C8.58 0 17.16 0 26 0 C26.84254502 9.47222167 27.13918866 18.83195137 27.11352539 28.3371582 C27.11324255 29.82674152 27.11340314 31.31632497 27.1139679 32.8059082 C27.11425209 36.80708942 27.10841709 40.80823999 27.10139394 44.80941415 C27.09509687 49.00674546 27.09455161 53.20407766 27.09336853 57.40141296 C27.09027381 65.3306218 27.08208573 73.25981667 27.07201904 81.18901938 C27.06079985 90.22421352 27.05533289 99.25940837 27.05032361 108.29460776 C27.03990136 126.86307995 27.02213429 145.43153833 27 164 C18.09 164 9.18 164 0 164 C0 155.09 0 146.18 0 137 C-7.92 137 -15.84 137 -24 137 C-24 128.09 -24 119.18 -24 110 C-33.24 110 -42.48 110 -52 110 C-52 91.52 -52 73.04 -52 54 C-42.68140122 53.37876008 -33.33928382 53 -24 53 C-23.67 44.09 -23.34 35.18 -23 26 C-15.74 25.67 -8.48 25.34 -1 25 C-0.67 16.75 -0.34 8.5 0 0 Z " fill="#FDAC1C" transform="translate(696,127)"/>
<path d="M0 0 C37.62 0 75.24 0 114 0 C114.33 8.58 114.66 17.16 115 26 C123.58 26 132.16 26 141 26 C141 35.57 141 45.14 141 55 C86.22 55 31.44 55 -25 55 C-25 45.76 -25 36.52 -25 27 C-21.09780242 26.34963374 -18.07871285 25.8761732 -14.2578125 25.90234375 C-13.50129395 25.90484131 -12.74477539 25.90733887 -11.96533203 25.90991211 C-10.55936768 25.92356812 -10.55936768 25.92356812 -9.125 25.9375 C-6.11375 25.958125 -3.1025 25.97875 0 26 C0 17.42 0 8.84 0 0 Z " fill="#FDC612" transform="translate(449,376)"/>
<path d="M0 0 C7.26 0 14.52 0 22 0 C22.95029783 12.73201801 23.13172374 25.36140253 23.09765625 38.125 C23.09578635 40.20963507 23.09436516 42.29427058 23.09336853 44.37890625 C23.08958833 49.8104376 23.07979759 55.24194132 23.06866455 60.67346191 C23.0583526 66.23803331 23.05385015 71.80260926 23.04882812 77.3671875 C23.03817033 88.24480563 23.02061113 99.12239617 23 110 C14.42 110 5.84 110 -3 110 C-3 118.91 -3 127.82 -3 137 C-11.25 137 -19.5 137 -28 137 C-28 100.37 -28 63.74 -28 26 C-18.76 26 -9.52 26 0 26 C0 17.42 0 8.84 0 0 Z " fill="#EEA404" transform="translate(834,675)"/>
<path d="M0 0 C1.87799538 0.00212242 1.87799538 0.00212242 3.79393005 0.00428772 C7.67384559 0.00974915 11.55369658 0.02227107 15.43359375 0.03515625 C18.11393078 0.04077745 20.79426944 0.044864 23.47460938 0.04882812 C29.94014717 0.05880889 36.4055509 0.0784072 42.87109375 0.09765625 C42.87109375 17.91765625 42.87109375 35.73765625 42.87109375 54.09765625 C15.48109375 54.09765625 -11.90890625 54.09765625 -40.12890625 54.09765625 C-40.12890625 36.60765625 -40.12890625 19.11765625 -40.12890625 1.09765625 C-11.39710664 -0.05161573 -11.39710664 -0.05161573 0 0 Z " fill="#FDC612" transform="translate(491.12890625,483.90234375)"/>
<path d="M0 0 C0 18.15 0 36.3 0 55 C9.24 55 18.48 55 28 55 C28 63.58 28 72.16 28 81 C36.91 81 45.82 81 55 81 C56.44587274 88.22936369 56.1291164 95.01516136 55.4921875 102.33984375 C55.40050293 103.40452881 55.30881836 104.46921387 55.21435547 105.56616211 C55.14361816 106.36932861 55.07288086 107.17249512 55 108 C50.18432982 108.02518048 45.36869998 108.04308077 40.55297852 108.05493164 C38.92308889 108.05988474 37.29320352 108.06664905 35.66333008 108.07543945 C24.39185147 108.13459819 13.24789224 107.763486 2 107 C2 98.09 2 89.18 2 80 C-5.92 80 -13.84 80 -22 80 C-22 53.6 -22 27.2 -22 0 C-17 -1 -17 -1 0 0 Z " fill="#F6A907" transform="translate(261,264)"/>
<path d="M0 0 C0 17.82 0 35.64 0 54 C-26.4 54 -52.8 54 -80 54 C-80 36 -80 36 -79 27 C-70.42 27 -61.84 27 -53 27 C-53.020625 24.9375 -53.04125 22.875 -53.0625 20.75 C-53.06925443 14.11715049 -52.67645019 7.59538938 -52 1 C-34.64794338 -0.16792689 -17.38854053 -0.07368026 0 0 Z " fill="#FDC611" transform="translate(776,376)"/>
<path d="M0 0 C0.33 0 0.66 0 1 0 C1 4.62 1 9.24 1 14 C2.30069931 13.99777939 3.60139862 13.99555878 4.94151306 13.99327087 C17.17031765 13.9730419 29.39911887 13.95802904 41.62793636 13.94818783 C47.91562024 13.94295838 54.20329066 13.93585961 60.4909668 13.92456055 C66.55337723 13.91373386 72.61577469 13.90772363 78.67819405 13.90512276 C80.99676277 13.90326811 83.31533074 13.89964675 85.63389397 13.89426994 C88.86914508 13.88706242 92.10434183 13.88600894 95.33959961 13.88647461 C96.30848114 13.88287933 97.27736267 13.87928406 98.27560425 13.87557983 C99.59027428 13.87764183 99.59027428 13.87764183 100.9315033 13.87974548 C102.08051825 13.87836279 102.08051825 13.87836279 103.25274563 13.87695217 C105 14 105 14 106 15 C106.08758003 16.99964982 106.10696576 19.0023611 106.09765625 21.00390625 C106.09282227 22.82631836 106.09282227 22.82631836 106.08789062 24.68554688 C106.07532227 26.60463867 106.07532227 26.60463867 106.0625 28.5625 C106.05798828 29.84576172 106.05347656 31.12902344 106.04882812 32.45117188 C106.03699545 35.63416022 106.02051068 38.81705762 106 42 C100.01660959 42.8708255 94.22889216 43.13825666 88.1875 43.11352539 C86.76660316 43.11374443 86.76660316 43.11374443 85.31700134 43.1139679 C82.21131027 43.11327575 79.10568049 43.10551626 76 43.09765625 C73.83667026 43.09578959 71.67334009 43.09436686 69.51000977 43.09336853 C63.83505065 43.08956291 58.1601174 43.07974941 52.48516846 43.06866455 C46.68673045 43.0584083 40.88828823 43.0538619 35.08984375 43.04882812 C23.72655118 43.0381253 12.36327775 43.02107248 1 43 C0.83361243 39.47387613 0.66964837 35.94764349 0.50610352 32.42138672 C0.45922646 31.428582 0.4123494 30.43577728 0.36405182 29.41288757 C0.05178148 22.64612349 -0.13195571 15.89960323 -0.0625 9.125 C-0.05798828 8.22265625 -0.05347656 7.3203125 -0.04882812 6.390625 C-0.03749706 4.26038462 -0.01960289 2.13018032 0 0 Z " fill="#25393D" transform="translate(750,579)"/>
<path d="M0 0 C0 27.06 0 54.12 0 82 C-11.385 81.505 -11.385 81.505 -23 81 C-23.16587383 54.31274352 -22.88519181 27.63334814 -21 1 C-14.73191505 -2.13404247 -7.00793201 0 0 0 Z " fill="#F3A806" transform="translate(777,703)"/>
<path d="M0 0 C11.88 0 23.76 0 36 0 C36 11.22 36 22.44 36 34 C18.51 34 1.02 34 -17 34 C-17 28.39 -17 22.78 -17 17 C-11.39 17 -5.78 17 0 17 C0 11.39 0 5.78 0 0 Z " fill="#EFA204" transform="translate(733,475)"/>
<path d="M0 0 C9.24 0 18.48 0 28 0 C28 8.58 28 17.16 28 26 C18.76 26 9.52 26 0 26 C0 17.42 0 8.84 0 0 Z " fill="#131A1F" transform="translate(534,731)"/>
<path d="M0 0 C7.92 0 15.84 0 24 0 C24 8.91 24 17.82 24 27 C16.08 27 8.16 27 0 27 C0 18.09 0 9.18 0 0 Z " fill="#F4A707" transform="translate(699,811)"/>
<path d="M0 0 C8.58 0 17.16 0 26 0 C26 7.92 26 15.84 26 24 C17.42 24 8.84 24 0 24 C0 16.08 0 8.16 0 0 Z " fill="#101A1F" transform="translate(643,731)"/>
<path d="M0 0 C7.59 0 15.18 0 23 0 C23 8.58 23 17.16 23 26 C15.41 26 7.82 26 0 26 C0 17.42 0 8.84 0 0 Z " fill="#101921" transform="translate(590,758)"/>
<path d="M0 0 C11.55 0 23.1 0 35 0 C35 0.33 35 0.66 35 1 C31.37 1 27.74 1 24 1 C24 9.25 24 17.5 24 26 C23.34 25.67 22.68 25.34 22 25 C20.3325394 24.91573906 18.66174813 24.89274857 16.9921875 24.90234375 C16.1038623 24.90484131 15.21553711 24.90733887 14.30029297 24.90991211 C13.16994629 24.91901611 12.03959961 24.92812012 10.875 24.9375 C7.28625 24.958125 3.6975 24.97875 0 25 C0 16.75 0 8.5 0 0 Z " fill="#F0A507" transform="translate(725,785)"/>
<path d="M0 0 C7.92 0 15.84 0 24 0 C24 0.66 24 1.32 24 2 C16.74 2 9.48 2 2 2 C1.67 10.25 1.34 18.5 1 27 C-7.91 27 -16.82 27 -26 27 C-26 44.49 -26 61.98 -26 80 C-34.58 80 -43.16 80 -52 80 C-52 203.09 -52 326.18 -52 453 C-44.08 453 -36.16 453 -28 453 C-28 453.33 -28 453.66 -28 454 C-36.25 454 -44.5 454 -53 454 C-53 330.25 -53 206.5 -53 79 C-44.42 79 -35.84 79 -27 79 C-27 61.51 -27 44.02 -27 26 C-18.09 26 -9.18 26 0 26 C0 17.42 0 8.84 0 0 Z " fill="#000000" transform="translate(264,127)"/>
<path d="M0 0 C9.24 0 18.48 0 28 0 C28 0.33 28 0.66 28 1 C19.42 1 10.84 1 2 1 C2 35.98 2 70.96 2 107 C9.92 107 17.84 107 26 107 C26 107.66 26 108.32 26 109 C17.42 109 8.84 109 0 109 C0 73.03 0 37.06 0 0 Z " fill="#F6D80E" transform="translate(398,622)"/>
<path d="M0 0 C17.82 0 35.64 0 54 0 C54 19 54 19 53 26 C47.39 26 41.78 26 36 26 C36 25.67 36 25.34 36 25 C41.28 25 46.56 25 52 25 C51.96078794 20.04962411 51.96078794 20.04962411 51.90991211 15.09936523 C51.90741455 14.46716064 51.90491699 13.83495605 51.90234375 13.18359375 C51.89710693 12.54993896 51.89187012 11.91628418 51.88647461 11.26342773 C52.04226709 8.15729419 52.5601742 5.07878063 53 2 C36.17 2 19.34 2 2 2 C2 6.95 2 11.9 2 17 C1.67 20.63 1.34 24.26 1 28 C-12.365 28.495 -12.365 28.495 -26 29 C-26 37.25 -26 45.5 -26 54 C-26.99 54.495 -26.99 54.495 -28 55 C-28.02904864 51.08334892 -28.04681517 47.1667256 -28.0625 43.25 C-28.07087891 42.13882813 -28.07925781 41.02765625 -28.08789062 39.8828125 C-28.09111328 38.81289062 -28.09433594 37.74296875 -28.09765625 36.640625 C-28.10289307 35.65610352 -28.10812988 34.67158203 -28.11352539 33.65722656 C-28 31 -28 31 -27 27 C-18.09 27 -9.18 27 0 27 C0 18.09 0 9.18 0 0 Z " fill="#06090B" transform="translate(317,73)"/>
<path d="M0 0 C0 9.57 0 19.14 0 29 C8.58 29 17.16 29 26 29 C26 37.91 26 46.82 26 56 C44.48 56 62.96 56 82 56 C82 64.91 82 73.82 82 83 C81.67 83 81.34 83 81 83 C81 74.75 81 66.5 81 58 C78.21433594 58.01160156 75.42867187 58.02320313 72.55859375 58.03515625 C69.80802524 58.04299396 67.05745806 58.04904378 64.30688477 58.05493164 C62.42081123 58.05990639 60.53474144 58.06668858 58.64868164 58.07543945 C34.88246185 58.18280744 34.88246185 58.18280744 25 57 C24 56 24 56 23.88647461 53.59155273 C23.89171143 52.54942627 23.89694824 51.5072998 23.90234375 50.43359375 C23.90556641 49.30888672 23.90878906 48.18417969 23.91210938 47.02539062 C23.92467773 45.24938477 23.92467773 45.24938477 23.9375 43.4375 C23.94201172 42.24962891 23.94652344 41.06175781 23.95117188 39.83789062 C23.96300325 36.89187774 23.97948713 33.94596319 24 31 C22.91730835 31.00785522 22.91730835 31.00785522 21.81274414 31.01586914 C18.56267151 31.03657358 15.31261272 31.04963918 12.0625 31.0625 C10.35803711 31.07506836 10.35803711 31.07506836 8.61914062 31.08789062 C7.53955078 31.09111328 6.45996094 31.09433594 5.34765625 31.09765625 C3.84730835 31.10551147 3.84730835 31.10551147 2.31665039 31.11352539 C0 31 0 31 -1 30 C-1.08767112 27.92737924 -1.10695873 25.85179706 -1.09765625 23.77734375 C-1.09443359 22.51728516 -1.09121094 21.25722656 -1.08789062 19.95898438 C-1.07953403 18.61848891 -1.07106907 17.27799412 -1.0625 15.9375 C-1.0574866 14.59310058 -1.05292342 13.2486994 -1.04882812 11.90429688 C-1.03699497 8.60284567 -1.01905886 5.3014174 -1 2 C-9.58 2 -18.16 2 -27 2 C-27 1.67 -27 1.34 -27 1 C-22.68751188 0.83302487 -18.37500759 0.66647134 -14.0625 0.5 C-12.83080078 0.45230469 -11.59910156 0.40460937 -10.33007812 0.35546875 C-8.5753418 0.28779297 -8.5753418 0.28779297 -6.78515625 0.21875 C-5.70113525 0.17685547 -4.61711426 0.13496094 -3.50024414 0.09179688 C-1 0 -1 0 0 0 Z " fill="#080924" transform="translate(451,757)"/>
<path d="M0 0 C17.49 0 34.98 0 53 0 C53 36.63 53 73.26 53 111 C52.67 111 52.34 111 52 111 C52 75.03 52 39.06 52 2 C35.5 2 19 2 2 2 C1.67 9.59 1.34 17.18 1 25 C0.67 25 0.34 25 0 25 C0 16.75 0 8.5 0 0 Z " fill="#020405" transform="translate(698,74)"/>
<path d="M0 0 C53.46 0 106.92 0 162 0 C162 0.33 162 0.66 162 1 C109.53 1.33 57.06 1.66 3 2 C2.34 9.92 1.68 17.84 1 26 C0.67 26 0.34 26 0 26 C0 17.42 0 8.84 0 0 Z " fill="#FDE60E" transform="translate(426,595)"/>
<path d="M0 0 C3.3 0 6.6 0 10 0 C10 18.48 10 36.96 10 56 C7.64561349 57.17719326 6.35233185 57.08905996 3.73388672 57.02172852 C2.85312469 57.00163223 1.97236267 56.98153595 1.06491089 56.96083069 C0.11278717 56.93379562 -0.83933655 56.90676056 -1.8203125 56.87890625 C-3.28100662 56.84348976 -3.28100662 56.84348976 -4.77120972 56.80735779 C-7.88928472 56.73062849 -11.00711712 56.646644 -14.125 56.5625 C-16.23566511 56.5092886 -18.34634215 56.45654814 -20.45703125 56.40429688 C-25.63817177 56.27500087 -30.81913132 56.13974366 -36 56 C-36 55.67 -36 55.34 -36 55 C-21.48 55 -6.96 55 8 55 C8 37.18 8 19.36 8 1 C5.36 1 2.72 1 0 1 C0 0.67 0 0.34 0 0 Z " fill="#191825" transform="translate(526,483)"/>
<path d="M0 0 C8.58 0 17.16 0 26 0 C26 7.92 26 15.84 26 24 C17.42 24 8.84 24 0 24 C0 16.08 0 8.16 0 0 Z M2 1 C2 7.93 2 14.86 2 22 C9.59 22 17.18 22 25 22 C25 15.07 25 8.14 25 1 C17.41 1 9.82 1 2 1 Z " fill="#0D0D25" transform="translate(643,731)"/>
<path d="M0 0 C0.33 0 0.66 0 1 0 C0.99666908 1.53429153 0.99666908 1.53429153 0.99327087 3.09957886 C0.97302865 12.72331278 0.95802263 22.34704241 0.94818783 31.97079277 C0.94296176 36.91885132 0.93586909 41.86689273 0.92456055 46.81494141 C0.9137219 51.58706964 0.90772108 56.35918136 0.90512276 61.13132095 C0.90327028 62.95504135 0.89965304 64.77876082 0.89426994 66.60247421 C0.88704657 69.15020475 0.88600961 71.69786639 0.88647461 74.24560547 C0.88287933 75.00517548 0.87928406 75.76474548 0.87557983 76.54733276 C0.81156405 80.40073594 0.81156405 80.40073594 2 84 C-6.25 84 -14.5 84 -23 84 C-14.9525993 79.97629965 -9.7100321 81 0 81 C0 54.27 0 27.54 0 0 Z " fill="#F1BC0F" transform="translate(368,207)"/>
<path d="M0 0 C8.58 0 17.16 0 26 0 C26 0.33 26 0.66 26 1 C18.08 1.33 10.16 1.66 2 2 C2 18.5 2 35 2 52 C1.67 52 1.34 52 1 52 C0.23495079 34.65006756 -0.10038988 17.36744889 0 0 Z " fill="#030625" transform="translate(345,291)"/>
<path d="M0 0 C8.25 0 16.5 0 25 0 C25 0.66 25 1.32 25 2 C14.605 2.99 14.605 2.99 4 4 C3.67 6.31 3.34 8.62 3 11 C2.67 11 2.34 11 2 11 C2.01160156 10.36191406 2.02320313 9.72382813 2.03515625 9.06640625 C2.04417969 8.24011719 2.05320312 7.41382813 2.0625 6.5625 C2.07990234 5.32693359 2.07990234 5.32693359 2.09765625 4.06640625 C2.23267348 2.00836062 2.23267348 2.00836062 1 1 C1 6.28 1 11.56 1 17 C0.67 17 0.34 17 0 17 C0 11.39 0 5.78 0 0 Z " fill="#F1B810" transform="translate(263,207)"/>
<path d="M0 0 C9.57 0 19.14 0 29 0 C29 0.33 29 0.66 29 1 C15.635 1.495 15.635 1.495 2 2 C1.75062704 9.76299755 1.75062704 9.76299755 1.52197266 17.52661133 C1.4863623 18.4936499 1.45075195 19.46068848 1.4140625 20.45703125 C1.3826416 21.44678955 1.3512207 22.43654785 1.31884766 23.45629883 C1 26 1 26 -1 29 C-1.14993071 19.27116304 -0.67478081 9.69997412 0 0 Z " fill="#070826" transform="translate(317,344)"/>
<path d="M0 0 C7.92 0 15.84 0 24 0 C24 0.66 24 1.32 24 2 C16.74 2 9.48 2 2 2 C2 4.97 2 7.94 2 11 C1.67 11 1.34 11 1 11 C0.67 7.37 0.34 3.74 0 0 Z " fill="#04070A" transform="translate(264,127)"/>
<path d="M0 0 C0.66 0 1.32 0 2 0 C1.67 7.92 1.34 15.84 1 24 C0.01 24.33 -0.98 24.66 -2 25 C-2 18.73 -2 12.46 -2 6 C-1.67 6 -1.34 6 -1 6 C-0.67 4.02 -0.34 2.04 0 0 Z " fill="#F2B810" transform="translate(345,102)"/>
<path d="M0 0 C6.27 0 12.54 0 19 0 C19 0.33 19 0.66 19 1 C10.585 1.495 10.585 1.495 2 2 C2 5.3 2 8.6 2 12 C1.34 12 0.68 12 0 12 C0 8.04 0 4.08 0 0 Z " fill="#EEC30D" transform="translate(449,376)"/>
</svg>
